<svg xmlns="http://www.w3.org/2000/svg" width="48" height="48" viewBox="0 0 48 48">
  <defs>
    <filter id="shadow" x="-20%" y="-20%" width="140%" height="140%">
      <feDropShadow dx="0" dy="2" stdDeviation="2" flood-opacity="0.25"/>
    </filter>
  </defs>
  <g filter="url(#shadow)">
    <circle cx="24" cy="24" r="18" fill="#19c37d"/>
    <circle cx="24" cy="24" r="16" fill="#0f172a" opacity="0.10"/>
  </g>
  <g fill="#ffffff">
    <path d="M18 29h16v3H18z" opacity="0.9"/>
    <path d="M17 26h17v2H17z" opacity="0.95"/>
    <path d="M26 14c3 1 4 4 2 7 2-1 4-3 4-6 0-3-3-5-6-6z"/>
    <path d="M21 15c2 1 3 3 2 5 2-1 3-2 3-4 0-2-2-4-5-5z" opacity="0.9"/>
  </g>
</svg>
